# xmcd
#
# Track frame offsets: 
#        150
#        15285
#        29002
#        45739
#        58410
#        77312
#        92261
#        102777
#        118920
#        134441
#
# Disc length: 1993 seconds
#
# Revision: 0
# Processed by: cddbd v1.5.2PL0 Copyright (c) Steve Scherf et al.
# Submitted via: ExactAudioCopy v0.99pb5
#
DISCID=7807c70a
DTITLE=Pure Prairie League - Dance
DYEAR=2007
DGENRE=Country
TTITLE0=01 Dance
TTITLE1=02 In The Morning
TTITLE2=03 All The Way
TTITLE3=04 Livin' Each Day At A Time
TTITLE4=05 Fade Away
TTITLE5=06 Tornado Warning
TTITLE6=07 Catfishin'
TTITLE7=08 Help Yourself
TTITLE8=09 San Antonio
TTITLE9=10 All The Lonesome Cowboys
EXTD=
EXTT0=
EXTT1=
EXTT2=
EXTT3=
EXTT4=
EXTT5=
EXTT6=
EXTT7=
EXTT8=
EXTT9=
PLAYORDER=
